# xmcd
#
# Track frame offsets:
#	150
#	17207
#	33307
#	41375
#	56890
#	76285
#	89845
#	102107
#	114985
#	128235
#	144102
#	162330
#	184537
#
# Disc length: 2695 seconds
#
# Revision: 0
# Processed by: cddbd v1.4PL0 Copyright (c) Steve Scherf et al.
# Submitted via: EasyCDDAExtractor 5.0.5.1
#
DISCID=a30a850d
DTITLE=Anne Kerkpatrick - And Friends Live
DYEAR=1995
DGENRE=Country
TTITLE0=Out Of The Blue
TTITLE1=Youain't Goin' Nowhere
TTITLE2=One Rose
TTITLE3=I Still Miss Someone
TTITLE4=Sin City
TTITLE5=Wheels
TTITLE6=Feel A Whole Lot Better
TTITLE7=Lights In The Mirror
TTITLE8=Cryin' Time
TTITLE9=Come Back Again
TTITLE10=If You Wont Go Away
TTITLE11=In The Country
TTITLE12=Bury Me Beneath The Willow
EXTD=
EXTT0=
EXTT1=
EXTT2=
EXTT3=
EXTT4=
EXTT5=
EXTT6=
EXTT7=
EXTT8=
EXTT9=
EXTT10=
EXTT11=
EXTT12=
PLAYORDER=
